<svg width="303" height="303" viewBox="0 0 303 303" fill="none" xmlns="http://www.w3.org/2000/svg">
<path d="M111.267 29.8138C118.446 42.2494 114.186 58.1508 101.75 65.3305C89.3144 72.5102 73.413 68.2494 66.2333 55.8138C59.0536 43.3782 63.3144 27.4769 75.75 20.2971C88.1856 13.1174 104.087 17.3782 111.267 29.8138Z" fill="#CACACA"/>
<path d="M55.8138 66.2333C68.2494 73.413 72.5102 89.3144 65.3305 101.75C58.1508 114.186 42.2494 118.446 29.8138 111.267C17.3782 104.087 13.1174 88.1856 20.2971 75.75C27.4769 63.3144 43.3782 59.0536 55.8138 66.2333Z" fill="#CACACA"/>
<path d="M26 125.5C40.3594 125.5 52 137.141 52 151.5C52 165.859 40.3594 177.5 26 177.5C11.6406 177.5 -3.34796e-07 165.859 0 151.5C3.34796e-07 137.141 11.6406 125.5 26 125.5Z" fill="#CACACA"/>
<path d="M277 125.5C291.359 125.5 303 137.141 303 151.5C303 165.859 291.359 177.5 277 177.5C262.641 177.5 251 165.859 251 151.5C251 137.141 262.641 125.5 277 125.5Z" fill="#CACACA"/>
<path d="M247.186 66.2333C259.622 59.0536 275.523 63.3144 282.703 75.75C289.883 88.1856 285.622 104.087 273.186 111.267C260.751 118.446 244.849 114.186 237.67 101.75C230.49 89.3144 234.751 73.413 247.186 66.2333Z" fill="#CACACA"/>
<path d="M191.733 29.8138C198.913 17.3782 214.814 13.1175 227.25 20.2972C239.686 27.4769 243.946 43.3782 236.767 55.8138C229.587 68.2495 213.686 72.5102 201.25 65.3305C188.814 58.1508 184.554 42.2495 191.733 29.8138Z" fill="#CACACA"/>
<path d="M177.5 26C177.5 40.3594 165.859 52 151.5 52C137.141 52 125.5 40.3594 125.5 26C125.5 11.6406 137.141 0 151.5 0C165.859 0 177.5 11.6406 177.5 26Z" fill="black"/>
<path d="M29.8138 191.733C42.2494 184.554 58.1508 188.814 65.3305 201.25C72.5102 213.686 68.2494 229.587 55.8138 236.767C43.3782 243.946 27.4769 239.686 20.2971 227.25C13.1174 214.814 17.3782 198.913 29.8138 191.733Z" fill="#CACACA"/>
<path d="M273.186 191.733C285.622 198.913 289.883 214.814 282.703 227.25C275.523 239.686 259.622 243.946 247.186 236.767C234.751 229.587 230.49 213.686 237.67 201.25C244.849 188.814 260.751 184.554 273.186 191.733Z" fill="#CACACA"/>
<path d="M177.5 277C177.5 291.359 165.859 303 151.5 303C137.141 303 125.5 291.359 125.5 277C125.5 262.641 137.141 251 151.5 251C165.859 251 177.5 262.641 177.5 277Z" fill="#CACACA"/>
<path d="M66.2333 247.186C73.413 234.751 89.3144 230.49 101.75 237.67C114.186 244.849 118.446 260.751 111.267 273.186C104.087 285.622 88.1856 289.883 75.75 282.703C63.3144 275.523 59.0536 259.622 66.2333 247.186Z" fill="black"/>
<path d="M236.767 247.186C243.946 259.622 239.686 275.523 227.25 282.703C214.814 289.883 198.913 285.622 191.733 273.186C184.554 260.751 188.814 244.849 201.25 237.67C213.686 230.49 229.587 234.751 236.767 247.186Z" fill="black"/>
</svg>
