<svg width="304" height="303" viewBox="0 0 304 303" fill="none" xmlns="http://www.w3.org/2000/svg">
<path d="M178 277C178 291.359 166.359 303 152 303C137.641 303 126 291.359 126 277C126 262.641 137.641 251 152 251C166.359 251 178 262.641 178 277Z" fill="#CACACA"/>
<path d="M111.767 29.8138C118.946 42.2494 114.686 58.1508 102.25 65.3305C89.8144 72.5102 73.913 68.2494 66.7333 55.8138C59.5536 43.3782 63.8144 27.4769 76.25 20.2971C88.6856 13.1174 104.587 17.3782 111.767 29.8138Z" fill="#CACACA"/>
<path d="M237.267 247.186C244.446 259.622 240.186 275.523 227.75 282.703C215.314 289.883 199.413 285.622 192.233 273.186C185.054 260.751 189.314 244.849 201.75 237.67C214.186 230.49 230.087 234.751 237.267 247.186Z" fill="#CACACA"/>
<path d="M56.3138 66.2333C68.7494 73.413 73.0102 89.3144 65.8305 101.75C58.6508 114.186 42.7494 118.446 30.3138 111.267C17.8782 104.087 13.6174 88.1856 20.7971 75.75C27.9769 63.3144 43.8782 59.0536 56.3138 66.2333Z" fill="#CACACA"/>
<path d="M26.5 125.5C40.8594 125.5 52.5 137.141 52.5 151.5C52.5 165.859 40.8594 177.5 26.5 177.5C12.1406 177.5 0.5 165.859 0.5 151.5C0.5 137.141 12.1406 125.5 26.5 125.5Z" fill="#CACACA"/>
<path d="M277.5 125.5C291.859 125.5 303.5 137.141 303.5 151.5C303.5 165.859 291.859 177.5 277.5 177.5C263.141 177.5 251.5 165.859 251.5 151.5C251.5 137.141 263.141 125.5 277.5 125.5Z" fill="#CACACA"/>
<path d="M247.686 66.2333C260.122 59.0536 276.023 63.3144 283.203 75.75C290.383 88.1856 286.122 104.087 273.686 111.267C261.251 118.446 245.349 114.186 238.17 101.75C230.99 89.3144 235.251 73.413 247.686 66.2333Z" fill="#CACACA"/>
<path d="M66.7333 247.186C73.913 234.751 89.8144 230.49 102.25 237.67C114.686 244.849 118.946 260.751 111.767 273.186C104.587 285.622 88.6856 289.883 76.25 282.703C63.8144 275.523 59.5536 259.622 66.7333 247.186Z" fill="#CACACA"/>
<path d="M192.233 29.8138C199.413 17.3782 215.314 13.1175 227.75 20.2972C240.186 27.4769 244.446 43.3782 237.267 55.8138C230.087 68.2495 214.186 72.5102 201.75 65.3305C189.314 58.1508 185.054 42.2495 192.233 29.8138Z" fill="#CACACA"/>
<path d="M178 26C178 40.3594 166.359 52 152 52C137.641 52 126 40.3594 126 26C126 11.6406 137.641 0 152 0C166.359 0 178 11.6406 178 26Z" fill="black"/>
<path d="M273.686 191.733C286.122 198.913 290.383 214.814 283.203 227.25C276.023 239.686 260.122 243.946 247.686 236.767C235.251 229.587 230.99 213.686 238.17 201.25C245.349 188.814 261.251 184.554 273.686 191.733Z" fill="black"/>
<path d="M30.3138 191.733C42.7494 184.554 58.6508 188.814 65.8305 201.25C73.0102 213.686 68.7494 229.587 56.3138 236.767C43.8782 243.946 27.9769 239.686 20.7971 227.25C13.6174 214.814 17.8782 198.913 30.3138 191.733Z" fill="black"/>
</svg>
